<?xml version="1.0" encoding="utf-8"?>
<!-- Generator: Adobe Illustrator 27.8.1, SVG Export Plug-In . SVG Version: 6.00 Build 0)  -->
<svg version="1.1" id="Layer_1" xmlns="http://www.w3.org/2000/svg" xmlns:xlink="http://www.w3.org/1999/xlink" x="0px" y="0px"
	 viewBox="0 0 1080 513" style="enable-background:new 0 0 1080 513;" xml:space="preserve">
<g>
	<path d="M39.8,33.6h159.5v43.6H89.4v76.6h96.8v42.5H89.4v34.7h114.9v43.6H39.8V33.6z"/>
	<path d="M238,18.7h47.5v256H238V18.7z"/>
	<path d="M364.9,260.5l-59.9-136.8h52.8l21.6,58.1c5.3,14.2,10.6,39,10.6,39s4.6-25.2,10.3-39l23.4-58.1h48.6l-98.9,226.2h-47.9
		L364.9,260.5z"/>
	<path d="M476.2,249.2l28-24.8c10.3,9.9,23.4,16,37.6,16c15.6,0,20.6-2.8,20.6-9.2c0-8.2-9.6-8.2-34-14.5
		c-20.6-5.3-43.6-16.7-43.6-48.2c0-34,26.2-47.9,58.5-47.9c24.8,0,42.5,8.2,54.9,20.9l-25.5,27.3c-7.1-6-17.7-11.3-29.1-11.3
		c-11,0-16.3,2.8-16.3,8.9c0,8.5,9.6,9.6,30.1,14.2c22,5,49.6,15.2,49.6,47.2c0,27.7-14.5,50.3-62,50.3
		C509.8,277.9,489.3,264.8,476.2,249.2z"/>
	<path d="M782.1,159.8c-18.1,0-27.6,7.8-34.4,13.8l-26.6-28.4c14.2-13.8,30.1-24.8,65.6-24.8c38.6,0,68.1,20.9,68.1,68.4v85.8h-47.5
		l1.1-20.9c-11.3,17.4-24.5,24.1-44.7,24.1c-27.7,0-53.2-12.4-53.2-47.5c0-32.3,24.5-45.4,61.7-45.4h35.1
		C806.5,167.6,798,159.8,782.1,159.8z M774.6,213.4c-12.1,0-17.4,5.3-17.4,13.8c0,8.5,7.1,13.5,20.6,13.5c19.5,0,29.4-8.5,29.4-21.3
		v-6H774.6z"/>
	<path d="M887.7,123.7h47.9l-1.1,24.8c9.2-18.1,26.9-28,47.9-28c33,0,56.7,24.1,56.7,67v87.2h-47.9v-84c0-17-8.1-26.6-25.2-26.6
		c-19.1,0-30.5,10.6-30.5,29.8v80.8h-47.9V123.7z"/>
	<g>
		<path d="M404.8,345.7c0-29.3,21.2-50.2,50.4-50.2c15,0,26.8,4.2,34.8,13.1l-10.3,10.2c-5.6-5.9-12.8-9.7-24.5-9.7
			c-20.5,0-34.8,15.6-34.8,36.5s14.4,36.7,36.7,36.7c10.1,0,18.8-2.6,24.3-6.4v-17.3h-26.4v-13.4h40.4v38.3
			c-6.4,5.8-19.9,12.6-38.3,12.6C426.5,396.1,404.8,375,404.8,345.7z"/>
		<path d="M548.4,295.6h1.7l43,99.2h-15.9l-5.6-13.9h-44.9l-5.6,13.9h-14.7L548.4,295.6z M566.2,368.1l-12.3-30.6
			c-2.3-5.5-4.8-13.7-4.9-14.4c-0.1,0.4-2.5,8.8-4.8,14.4L532,368.1H566.2z"/>
		<path d="M677.2,394.8h-17.6L642,368.9c-2.7,0.3-5.5,0.6-8.2,0.6h-9.2v25.3h-15.3v-98.2h24.5c27.1,0,42.3,14.1,42.3,36.7
			c0,15.2-6.8,25.5-19.6,31.2L677.2,394.8z M633.2,356.4c19.5,0,27.3-8.5,27.3-23.1c0-14.7-8.1-23.2-27.3-23.2h-8.7v46.3H633.2z"/>
		<path d="M696.5,296.6h27c31.5,0,52.4,19.6,52.4,49.1s-20.8,49.1-52.4,49.1h-27V296.6z M722.5,381.4c25.5,0,37.5-14.7,37.5-35.7
			s-12-35.7-37.5-35.7h-10.7v71.3H722.5z"/>
		<path d="M795,296.6h62.4V310h-47.1v38.1H852v13.1h-41.7v20.1h49.1v13.4H795V296.6z"/>
		<path d="M902.1,337.5c-3.9-4.2-9.2-11-9.2-11s1,8.1,1,14.1v54.1h-14.1v-99.2h2l54.1,58.2c3.8,4,9.1,11,9.1,11s-1-8.7-1-14.1v-54
			h14.1v99.2h-1.9L902.1,337.5z"/>
		<path d="M972.9,375.7l12.6-6.9c4.6,7.7,10.5,13.7,22.5,13.7c10,0,17-5.3,17-13.4c0-8.5-5.8-12.3-16.5-17l-6.5-2.9
			c-14.3-6.4-23-13.6-23-28.7c0-14.6,11.3-25,27.6-25c13,0,21.8,4.9,27.7,15.4l-12,7.4c-3.8-6.5-8.1-9.5-15.7-9.5
			c-7.8,0-12.7,4.8-12.7,11.4c0,7.4,4.2,10.7,14.1,15l6.4,2.9c16.7,7.4,25.7,15.2,25.7,30.9c0,17.2-13.4,27.1-31.9,27.1
			C989.7,396.1,978.4,386.8,972.9,375.7z"/>
	</g>
	<g>
		<g>
			<path d="M158.6,438.4h0.9l26.2,34.4l26.2-34.4h0.9V497h-3.3v-46c0-2,0.2-5,0.2-5s-1.6,2.8-3.2,4.8l-20.4,26.7H185l-20.1-26.7
				c-1.4-1.9-3.2-4.8-3.2-4.8s0.2,3,0.2,5v46h-3.3V438.4z"/>
			<path d="M239,439.1h3.5V497H239V439.1z"/>
			<path d="M268.9,439.1h12.4c20,0,31.7,11.2,31.7,29c0,17.8-11.6,29-31.7,29h-12.4V439.1z M280.8,493.9c19.2,0,28.5-10.6,28.5-25.8
				c0-15.2-9.3-25.8-28.5-25.8h-8.4v51.6H280.8z"/>
			<path d="M335.1,439.1h12.4c20,0,31.7,11.2,31.7,29c0,17.8-11.6,29-31.7,29h-12.4V439.1z M347,493.9c19.2,0,28.5-10.6,28.5-25.8
				c0-15.2-9.3-25.8-28.5-25.8h-8.4v51.6H347z"/>
			<path d="M401.3,439.1h3.5v54.9h27.9v3.1h-31.3V439.1z"/>
			<path d="M453.4,439.1h33.8v3.1h-30.3v31h27.2v3.1h-27.2v17.7h31.5v3.1h-35V439.1z"/>
			<path d="M510.7,439.1h33.7v3.1h-30.2v31h27.4v3.2h-27.4V497h-3.5V439.1z"/>
			<path d="M567,439.1h3.5V497H567V439.1z"/>
			<path d="M596.9,439.1h33.8v3.1h-30.3v31h27.2v3.1h-27.2v17.7h31.5v3.1h-35V439.1z"/>
			<path d="M654.2,439.1h3.5v54.9h27.9v3.1h-31.3V439.1z"/>
			<path d="M706.3,439.1h12.4c20,0,31.7,11.2,31.7,29c0,17.8-11.6,29-31.7,29h-12.4V439.1z M718.2,493.9c19.2,0,28.5-10.6,28.5-25.8
				c0-15.2-9.3-25.8-28.5-25.8h-8.4v51.6H718.2z"/>
			<path d="M797.9,468c0-17.6,13.3-29.6,29.6-29.6c10.1,0,18.1,3.9,23,11l-2.6,2c-4.3-6-11.2-9.8-20.4-9.8
				c-14.9,0-26.1,11.3-26.1,26.5c0,15.2,11.2,26.5,26.1,26.5c8.9,0,16.4-3.7,21-10.3l2.6,1.9c-5.1,7.4-13.6,11.6-23.7,11.6
				C811.2,497.7,797.9,485.7,797.9,468z"/>
			<path d="M884.2,442.1h-18.4v-3.1h40.3v3.1h-18.4V497h-3.5V442.1z"/>
			<path d="M910.6,494.2c0-2,1.7-3.4,3.4-3.4c1.8,0,3.4,1.4,3.4,3.4c0,1.9-1.6,3.4-3.4,3.4C912.3,497.6,910.6,496.1,910.6,494.2z"/>
		</g>
	</g>
	<g>
		<path d="M647.5,129.1c1.5,0.3,2.9,0.5,4.4,0.6c0,0,0,0,0,0c0.9,0.1,1.6,0,2.1-0.2c0.7-0.3,1.2-1,1.6-2.1c0.3-0.7,0.5-1.4,0.8-2.1
			c0.1-0.3,0.2-0.7,0.4-1c0,0,0,0,0,0c2.8-6.8,4.2-13.9,4.4-21.2c-0.4-3.4-0.5-6.8-1.2-10.2c-4.6-21.9-17.5-36.7-38.6-44.3
			c-4.3-1.5-8.7-2.4-13.2-2.7c-1.7-0.1-3,0.6-3.8,2.1c-0.6,1.2-1.2,2.4-1.6,3.7c-1.7,5.5-2.9,11-3.4,16.7
			c-0.6,8.7,0.4,17.1,3.6,25.2c5.7,14.1,15.6,24.2,29.3,30.7C637.2,126.6,642.3,128.1,647.5,129.1
			C647.5,129.1,647.5,129.1,647.5,129.1z"/>
		<path d="M653.6,135.8c-6.9-0.3-13.2-1.5-19-3.5v142.3h47.9V130.5C673.6,134.5,663.9,136.3,653.6,135.8z"/>
		<path d="M709.9,53.8c-0.7-2-1.5-4.1-2.4-6c-0.5-1.2-1.5-2-2.9-1.8c-3.6,0.5-7.2,0.9-10.7,1.8c-13.5,3.5-24.1,11.3-32.4,22.3
			c-0.4,0.6-0.8,1.2-1.1,1.8c-0.3,0.6-0.2,1.2,0.1,1.8c0.7,1.1,1.3,2.2,1.8,3.3c3.3,7.1,4.5,14.6,4.9,22.3
			c0.4,8.4-0.7,16.5-3.4,24.3h-0.1c-0.5,1.5-1,3-1.6,4.4c-0.1,0.2-0.2,0.6-0.2,0.8c0,0.1,0,0.1,0.1,0.2c0.2,0.2,0.6,0.3,0.9,0.2
			c0,0,0.1,0,0.1,0c0.1,0,0.2,0,0.3-0.1c6.4-1.2,12.8-2.8,18.6-5.9c19.9-10.8,30.1-27.5,30.9-47C713,66.8,711.9,59.8,709.9,53.8z"/>
		<path d="M633.1,46.2c1.9,1.2,3.8,2.3,5.7,3.5c5.8,3.9,11.3,8.3,15.5,14.1c0.6,0.8,1.2,1.6,2,2.6c0.4-0.5,0.7-0.8,0.9-1.1
			c5.6-7.7,12.5-13.8,20.8-18.3c2.1-1.1,2.3-1.5,1.5-3.9c-0.1-0.4-0.2-0.7-0.4-1.1c-1.2-2.4-2.4-4.8-3.7-7.1
			c-4.4-7.6-10.3-13.9-17.6-18.8c-1.5-1-1.6-1-3,0c-5.6,4.1-10.4,8.8-14.5,14.4c-3.2,4.4-5.8,9.1-7.7,14.1
			C632.2,45.4,632.5,45.8,633.1,46.2z"/>
	</g>
</g>
</svg>
