<?xml version="1.0" encoding="utf-8"?>
<!-- Generator: Adobe Illustrator 27.8.1, SVG Export Plug-In . SVG Version: 6.00 Build 0)  -->
<svg version="1.1" id="Layer_1" xmlns="http://www.w3.org/2000/svg" xmlns:xlink="http://www.w3.org/1999/xlink" x="0px" y="0px"
	 viewBox="0 0 100 100" style="enable-background:new 0 0 100 100;" xml:space="preserve">
<g>
	<g>
		<path d="M27.5,86.7c-1.6-1.5-3.3-2.9-4.7-4.5c-5.9-6.9-8.2-14.8-6.5-23.7c0.4-2.3,1.6-2.8,3.6-1.7c5.3,2.9,8.9,7.3,11.4,12.7
			c1.6,3.6,2.4,7.4,2.5,11.4c0,0.1,0,0.3,0.1,0.9c3.2-3.4,6.2-6.5,9.1-9.6c-2.2-1.8-4.4-3.2-6.2-5C30.9,61.2,28,54,28.5,45.6
			c0.2-3.5,1.4-4.2,4.5-2.6c6.5,3.3,10.8,8.5,13.4,15.2c0.8,2,1.2,4.2,1.8,6.5c3.1-4.6,5.6-9.4,7.7-14.5c-1.7-0.8-3.4-1.5-5-2.4
			C42.9,42.9,38,35.9,37,26.4c0-0.3,0-0.6,0-1c0-1.7,0.9-2.6,2.5-2.1c2.4,0.7,4.9,1.4,7,2.6c5.7,3.1,9.7,7.8,12.3,13.8
			c0.1,0.2,0.3,0.4,0.5,1c0.5-2.1,1-4,1.3-5.8c0.1-0.4-0.2-0.8-0.4-1.2c-5.6-8.8-6-18-1.7-27.4c0.7-1.5,1.7-2.9,2.7-4.3
			c0.9-1.2,2.3-1.1,3.2,0.1c3.6,4.6,5.3,9.9,5.4,15.7c0.1,6.1-1.4,11.7-4.9,16.7c-0.7,1-0.8,2.5-1.2,3.8c2.3-1.4,4.3-2.9,6.5-4
			c4.8-2.5,9.9-3.4,15.2-2.7c1.9,0.3,2.5,1.4,1.7,3.3c-2.2,5.1-5.7,9-10.4,11.9c-5,3.1-10.4,4.7-16.3,4.3c-0.3,0-0.9,0.2-1,0.5
			c-1.4,2.9-2.8,5.8-4.1,8.6c0,0.1,0,0.1,0,0.1c2.1-0.6,4.1-1.4,6.2-1.9c4.7-1.2,9.4-1,14.1,0.5c1.5,0.5,2,1.7,1.1,3.1
			c-2.8,4.5-6.7,7.7-11.5,9.8c-5.7,2.6-11.7,3.2-17.8,1.8c-0.3-0.1-0.8-0.1-1,0.1c-1.6,1.8-3.1,3.7-4.9,5.7c3.8-0.6,7.5-0.7,11.1,0
			c3.6,0.7,7,2,10,4.2c1.6,1.2,1.7,2.4,0.1,3.7C54.5,94,41.5,95,32.2,89.4c-0.8-0.5-1.3-0.5-2,0.1c-4.6,3.6-9.6,6.6-14.8,9.2
			c-1.2,0.6-2.4,0.3-2.9-0.8c-0.5-1,0-1.9,1.2-2.6c4.4-2.7,8.8-5.4,13.2-8.1C27.1,87,27.3,86.8,27.5,86.7z M62.9,6.5
			c-4.3,6-4.5,17.3,0,23.9C67.3,23.8,67.2,12.7,62.9,6.5z M56.5,46.1c-0.7-8.1-8.9-16.9-15.4-18.2C42.1,35.7,49.3,44.2,56.5,46.1z
			 M32.4,47.1c-0.7,8.3,5.8,18.2,11.8,20.7C44.8,60.8,39.7,50.8,32.4,47.1z M58.7,85.4c-7.5-4.4-18.8-3.2-24,1
			C41.5,90.5,52.5,89.9,58.7,85.4z M19.8,61.3c-1.4,8.1,4,18.6,9.9,21.7C31,75.7,26.3,65.2,19.8,61.3z M82.6,35.1
			c-7.5-0.7-17.4,5-20.6,11.9C69.6,47.8,79.7,41.8,82.6,35.1z M49.6,69.9c8.8,2.1,19.2-2.8,22.5-8.1C63.3,59.9,53.6,64.3,49.6,69.9z
			"/>
	</g>
</g>
</svg>
