<?xml version="1.0" encoding="utf-8"?>
<!-- Generator: Adobe Illustrator 27.8.1, SVG Export Plug-In . SVG Version: 6.00 Build 0)  -->
<svg version="1.1" id="Layer_1" xmlns="http://www.w3.org/2000/svg" xmlns:xlink="http://www.w3.org/1999/xlink" x="0px" y="0px"
	 viewBox="0 0 100 100" style="enable-background:new 0 0 100 100;" xml:space="preserve">
<g>
	<g>
		<path d="M59.1,53.6c-2.4,3.7-4.1,7.5-5.5,11.6c-2.5,7.5-3.5,15.2-3.6,23c0,0.6,0,1.3-0.1,1.9c-0.2,1.1-0.9,1.7-2,1.6
			c-1.1,0-1.7-0.6-1.9-1.6c-0.1-0.6-0.1-1.2-0.1-1.8c0-8.5-0.7-16.9-2.5-25.3c-1.1-5-2.5-9.8-4.6-14.5c-0.2-0.4-0.4-0.7-0.5-1
			c-2.2,0.7-4.2,1.5-6.3,2c-6,1.2-11.9,0.7-17.1-2.9c-3.3-2.3-5.3-5.6-6.8-9.2c-2.1-5-3-10.2-3.4-15.5c-0.3-3.7-0.4-7.3-0.5-11
			C3.9,9.2,4.7,8.3,6.4,8.3c7.6,0,15.1,0.4,22.5,2.4c3.4,0.9,6.6,2.3,9.5,4.4c4,2.8,6.2,6.6,7.1,11.3c1,5.5,0.4,10.7-2.1,15.7
			c-0.1,0.1-0.1,0.2-0.2,0.3c-1.7,1.6-1.3,3.2-0.4,5.2c2.7,5.9,4.3,12.1,5.3,18.5c0.1,0.4,0.2,0.9,0.3,1.6c0.4-1.2,0.6-2.1,0.9-3
			c1.6-5,3.8-9.7,6.7-14.2c0.2-0.3,0.2-1,0.1-1.4c-2.7-6.8-2.9-13.5,0.4-20.1c1.7-3.5,4.7-5.8,8.1-7.5c5.2-2.7,10.8-3.8,16.5-4.4
			c4.1-0.4,8.3-0.5,12.5-0.6c1.7-0.1,2.5,0.8,2.5,2.4C96,26.4,95.6,33.8,93.6,41c-1.2,4.2-2.9,8.2-5.8,11.6
			c-3.3,3.8-7.6,5.3-12.4,5.7c-5.1,0.4-10-0.4-14.4-3.2C60.4,54.7,59.8,54.2,59.1,53.6z M91.8,20.9c-2.3,0-4.3-0.1-6.4,0
			c-5.3,0.3-10.6,1-15.6,2.8c-3.5,1.3-6.9,3-9,6.2c-2.4,3.7-2.7,7.9-2.3,12.1c0.1,1.3,0.5,2.5,0.8,3.8c0.3,0,0.3,0,0.3-0.1
			c0.2-0.2,0.4-0.4,0.6-0.6c4.4-4.7,9.4-8.5,15.2-11.3c1.5-0.7,2.8-0.4,3.4,0.7c0.6,1.2,0.2,2.2-1.4,3c-3.8,1.8-7.4,4.1-10.5,6.9
			c-1.9,1.7-3.6,3.6-5.4,5.4c0.4,0.4,0.5,0.6,0.8,0.8c0.4,0.3,0.7,0.6,1.1,0.9c4.1,2.5,8.6,2.9,13.3,2.2c4.1-0.6,7.3-2.5,9.5-6
			c1-1.7,2-3.6,2.6-5.5c1.7-4.7,2.3-9.5,2.7-14.5C91.7,25.5,91.7,23.2,91.8,20.9z M36.1,43.7c-0.2-0.3-0.3-0.5-0.4-0.7
			c-3.2-5.6-7.7-9.9-13-13.4c-0.6-0.4-1.1-0.8-1.5-1.3c-0.7-0.8-0.7-1.8,0.1-2.6c0.7-0.8,1.6-1,2.6-0.4c0.6,0.4,1.1,0.8,1.7,1.2
			c5.3,3.5,9.7,7.8,13.1,13.2c0.2,0.3,0.4,0.6,0.7,0.9c1.3-2.2,1.9-4.4,2.2-6.8c0.4-3,0.2-5.9-0.7-8.8c-1.4-4.6-4.9-7.1-9.1-8.9
			c-5.1-2.2-10.4-2.9-15.9-3.3c-2.5-0.2-5-0.2-7.6-0.4c0,0.6,0,1,0,1.4C8.5,17.3,8.6,21,9,24.5c0.4,4,1.3,7.9,2.9,11.6
			c1.5,3.3,3.3,6.5,6.8,8.1c3.4,1.6,7.1,2,10.8,1.5C31.8,45.4,34,44.8,36.1,43.7z"/>
	</g>
</g>
</svg>
