<?xml version="1.0" encoding="utf-8"?>
<!-- Generator: Adobe Illustrator 27.8.1, SVG Export Plug-In . SVG Version: 6.00 Build 0)  -->
<svg version="1.1" id="Layer_1" xmlns="http://www.w3.org/2000/svg" xmlns:xlink="http://www.w3.org/1999/xlink" x="0px" y="0px"
	 viewBox="0 0 100 100" style="enable-background:new 0 0 100 100;" xml:space="preserve">
<g>
	<g>
		<path d="M79.9,61c1.8,2,3.6,3.9,5.2,6c6,7.4,2,18.6-7.2,20.6c-0.9,0.2-1.5,0.6-2,1.4c-4.5,8.2-16.6,8.8-22,0.4
			c-1.4-2.1-2.6-4.4-3.9-6.6c-0.8,1.4-1.5,3-2.4,4.5c-1.2,1.8-2.4,3.7-4,5.1c-5.5,4.9-15.2,4.1-19.5-3.6c-0.3-0.6-0.8-0.9-1.4-1
			c-9.8-2-13.8-13.3-7.4-21c1.6-2,3.4-3.8,5.1-5.7c-1.8-0.3-3.7-0.6-5.6-1c-3.5-0.8-6.6-2.2-8.9-5.2c-3.5-4.5-3.5-11.6,0.2-15.9
			c0.9-1,1.2-2,1.1-3.4c-0.8-9.3,9-16.2,17.8-12.6c2.4,1,4.6,2.1,6.8,3c-0.2-2.7-0.6-5.5-0.7-8.3C30.7,8,40.5,1.8,49.2,5.8
			c0.4,0.2,1.2,0.2,1.6,0c8.6-4,18.4,2.2,18.4,11.6c0,2.9-0.4,5.7-0.7,8.5c2.1-0.9,4.4-2,6.7-3c8.7-3.6,18.3,3,17.8,12.3
			c-0.1,1.7,0.4,2.9,1.4,4.1c3.7,4.5,3.1,12-1.1,16.6c-2.2,2.4-5,3.4-8,4.1C83.7,60.4,81.7,60.7,79.9,61z M47.3,68.6
			c0-0.5,0-1,0-1.4c0-2.3-0.1-2.3-2.2-3c-0.7-0.2-1-0.1-1.4,0.4c-1,1.5-2.1,2.9-3.1,4.4c-1.5,2-2.9,4.1-4.5,6.1
			c-0.8,1.1-2,1.5-3.2,1.1c-1.2-0.4-1.9-1.3-1.8-2.4c0-0.9,0.5-1.8,1-2.6c2.1-3,4.3-6,6.5-9c1.1-1.5,1-1.5,0-3.1
			c-0.5-0.7-0.9-0.9-1.7-0.6c-6.3,1.7-11.8,4.9-16.1,9.9c-1.5,1.6-2.9,3.4-3.2,5.7c-0.6,4.5,2.6,8.3,7.2,8.4
			c2.1,0.1,2.8,0.5,3.3,2.2c0.9,2.9,2.8,4.7,5.9,5.1c3.1,0.4,5.5-0.6,7.4-3.2C45.2,81.2,47.1,75.2,47.3,68.6z M52.7,68.6
			c0.1,6.7,2,12.7,6,18.1c1.8,2.5,4.3,3.4,7.2,3c2.9-0.4,4.8-2.1,5.8-4.9c0.7-2,1.3-2.4,3.4-2.5c3-0.1,5.1-1.4,6.5-4
			c1.4-2.7,1.1-5.4-0.7-7.8c-4.2-5.9-9.9-9.7-16.7-11.8c-2.1-0.6-2-0.5-3.4,1.1c-0.6,0.7-0.4,1.1,0,1.7c2.5,3.4,5,6.8,7.4,10.2
			c1.1,1.5,0.9,3.2-0.4,4.1c-1.3,0.9-3,0.5-4.1-1c-2.3-3.1-4.6-6.3-6.8-9.4c-1.1-1.5-1.1-1.5-2.9-1c-1,0.2-1.3,0.7-1.2,1.6
			C52.8,67,52.7,67.8,52.7,68.6z M47.2,30.5c0-2.2,0-4.3,0-6.5c0-1.1,0.3-2,1.3-2.6c2-1.2,4.2,0.1,4.2,2.5c0,4.2,0,8.4,0,12.6
			c0,0.8,0.1,1.2,1,1.5c2,0.6,2,0.7,3.2-1c0.1-0.2,0.2-0.3,0.4-0.5c4.3-5.7,6.5-12.1,6.4-19.3c0-1.7-0.6-3.3-1.7-4.6
			c-2.5-3.1-6.5-3.5-9.9-1.3c-1.7,1.2-2.5,1.2-4.3,0c-0.2-0.1-0.4-0.3-0.6-0.4c-4.8-2.8-10.8,0.5-10.9,6.1c0,2.3,0.2,4.6,0.6,6.9
			c1,5.4,3.6,10,7,14.3c0.2,0.2,0.7,0.3,1,0.3c0.5-0.1,0.9-0.4,1.4-0.4c0.8-0.2,1-0.6,1-1.3C47.2,34.7,47.2,32.6,47.2,30.5z
			 M39.7,42.1c-3.6-6.2-9.5-11.6-17.4-14.2c-2.9-1-5.6-0.5-7.9,1.8c-2.1,2.1-2.6,4.7-1.7,7.5c0.5,1.8,0.2,2.6-1.2,3.7
			c-2.2,1.7-3.3,4-3,6.8c0.4,2.9,1.9,5.2,4.8,6.2c7.1,2.4,14.2,2.1,21.3-0.4c1.4-0.5,1.8-1.1,1.7-2.6c-0.1-0.9-0.3-1.3-1.2-1.6
			c-4-1.2-7.9-2.5-11.9-3.8c-0.6-0.2-1.2-0.6-1.7-1.1c-0.8-0.9-0.7-2.3,0-3.2c0.7-1,1.8-1.4,3.1-1c4.4,1.4,8.8,2.8,13.2,4.3
			C38.5,43.7,39.1,42.9,39.7,42.1z M62.1,44.5c4.3-1.4,8.5-2.8,12.7-4.1c0.6-0.2,1.3-0.3,1.9-0.3c1.2,0.1,2.1,1.2,2.2,2.5
			c0.1,1.4-0.6,2.5-2.1,3c-3.6,1.2-7.3,2.4-10.9,3.5c-2.2,0.7-2.2,0.7-2.1,3c0,0.4,0.4,0.9,0.7,1c7,2.9,14.2,3.2,21.5,1.1
			c3.2-0.9,5-3.1,5.5-6.3c0.4-2.9-0.7-5.3-3.1-7.1c-1.3-1-1.6-1.9-1.2-3.4c0.2-0.8,0.4-1.6,0.5-2.3c0.2-4.9-4.6-8.7-9.4-7.3
			c-6.1,1.8-11,5.3-15.1,10.2c-1.1,1.3-2,2.8-3,4.1C60.9,42.9,61.4,43.7,62.1,44.5z M50,43.1c-4.5,0-8.2,3.7-8.3,8.2
			c0,4.5,3.7,8.2,8.2,8.3c4.6,0,8.4-3.7,8.3-8.3C58.2,46.8,54.5,43.1,50,43.1z"/>
	</g>
</g>
</svg>
